{
  "title": "7 Hours To Go (2016) Tiny 720p DVDRip x264 AAC 5.1 ESub -DDR",
  "uid": 15913668,
  "size": 1442946367,
  "categoryP": "video",
  "categoryS": "hd___movies",
  "magnet": "?xt=urn:btih:1ebc4253dd796f0c3d33a978439b32d21047b45e&amp;dn=7+Hours+To+Go+%282016%29+Tiny+720p+DVDRip+x264+AAC+5.1+ESub+-DDR&amp;tr=udp%3A%2F%2Ftracker.leechers-paradise.org%3A6969&amp;tr=udp%3A%2F%2Fzer0day.ch%3A1337&amp;tr=udp%3A%2F%2Fopen.demonii.com%3A1337&amp;tr=udp%3A%2F%2Ftracker.coppersurfer.tk%3A6969&amp;tr=udp%3A%2F%2Fexodus.desync.com%3A6969",
  "seeders": 113,
  "leechers": 486,
  "uploader": "SaM",
  "files": 3,
  "time": 1475161861,
  "description": "** 7 Hours To Go **\r\n\r\n** 2016**\r\n\r\n**Tiny 720p / DVDrip / x264\r\n\r\nHindi Untouched AAC 5.1 **\r\n\r\n]** English Subtitle(s) **\r\n\r\n\r\n\r\n[ SCREENS ]\r\n \nhttps://extraimago.com/image/wUXs \nhttps://extraimago.com/image/wUXn \nhttps://extraimago.com/image/wUXj \nhttps://extraimago.com/image/wUXT \nhttps://extraimago.com/image/wUXN \nhttps://extraimago.com/image/wUX2 \nhttps://extraimago.com/image/wUXw \nhttps://extraimago.com/image/wUXa \nhttps://extraimago.com/image/wUX8 \nhttps://extraimago.com/image/wUPf \nhttps://extraimago.com/image/wUPW \nhttps://extraimago.com/image/wUPA \nhttps://extraimago.com/image/wUPv \nhttps://extraimago.com/image/wUPu \nhttps://extraimago.com/image/wUPV \nhttps://extraimago.com/image/wUP6\r\n\r\nSource : DVD9 @ DDR\r\nGeneral\r\nFormat : Matroska\r\nFormat version : Version 4 / Version 2\r\nFile size : 1.33 GiB\r\nDuration : 1 h 54 min\r\nOverall bit rate : 1 663 kb/s\r\n\r\n\r\nVideo\r\nID : 1\r\nFormat : AVC\r\nFormat/Info : Advanced Video Codec\r\nFormat profile :   \r\nFormat settings, CABAC : Yes\r\nFormat settings, ReFrames : 12 frames\r\nCodec ID : V_MPEG4/ISO/AVC\r\nDuration : 1 h 54 min\r\nBit rate : 1 499 kb/s\r\nWidth : 1 280 pixels\r\nHeight : 544 pixels\r\nDisplay aspect ratio : 2.35:1\r\nFrame rate mode : Constant\r\nFrame rate : 23.976 (24000/1001) FPS\r\nColor space : YUV\r\nChroma subsampling : 4:2:0\r\nBit depth : 8 bits\r\nScan type : Progressive\r\nBits/(Pixel*Frame) : 0.090\r\nStream size : 1.19 GiB (90%)\r\nLanguage : English\r\nDefault : Yes\r\nForced : No\r\nColor range : Limited\r\nColor primaries : BT.709\r\nTransfer characteristics : BT.709\r\nMatrix coefficients : BT.709\r\n\r\nAudio\r\nID : 2\r\nFormat : AAC\r\nFormat/Info : Advanced Audio Codec\r\nFormat profile : LC\r\nCodec ID : A_AAC\r\nDuration : 1 h 54 min\r\nBit rate : 160 kb/s\r\nChannel(s) : 6 channels\r\nChannel positions : Front: L C R, Side: L R, LFE\r\nSampling rate : 48.0 kHz\r\nFrame rate : 46.875 FPS (1024 spf)\r\nCompression mode : Lossy\r\nDelay relative to video : 9 ms\r\nStream size : 130 MiB (10%)\r\nLanguage : Hindi\r\nDefault : Yes\r\nForced : No",
  "parsed": {
    "xt": "urn:btih:1ebc4253dd796f0c3d33a978439b32d21047b45e",
    "dn": "7 Hours To Go (2016) Tiny 720p DVDRip x264 AAC 5.1 ESub -DDR",
    "tr": [
      "udp://exodus.desync.com:6969",
      "udp://open.demonii.com:1337",
      "udp://tracker.coppersurfer.tk:6969",
      "udp://tracker.leechers-paradise.org:6969",
      "udp://zer0day.ch:1337"
    ],
    "infoHash": "1ebc4253dd796f0c3d33a978439b32d21047b45e",
    "infoHashBuffer": {
      "type": "Buffer",
      "data": [
        30,
        188,
        66,
        83,
        221,
        121,
        111,
        12,
        61,
        51,
        169,
        120,
        67,
        155,
        50,
        210,
        16,
        71,
        180,
        94
      ]
    },
    "name": "7 Hours To Go (2016) Tiny 720p DVDRip x264 AAC 5.1 ESub -DDR",
    "announce": [
      "udp://exodus.desync.com:6969",
      "udp://open.demonii.com:1337",
      "udp://tracker.coppersurfer.tk:6969",
      "udp://tracker.leechers-paradise.org:6969",
      "udp://zer0day.ch:1337"
    ],
    "urlList": []
  },
  "previous": 599,
  "peers": 83,
  "last_updated": "2016-12-24T19:10:24.031Z"
}